<svg id="Layer_1" data-name="Layer 1" xmlns="http://www.w3.org/2000/svg" viewBox="0 0 439.97 304.7"><defs><style>.cls-1{fill:#fff;}</style></defs><path class="cls-1" d="M744,455.39a44.89,44.89,0,0,0-18.83,4.11c-35.16-33.68-115.93-57.61-210.88-59q4.85-.07,9.73-.07c102.21,0,190.51,23.13,232.09,56.65A44.82,44.82,0,0,0,744,455.39Z" transform="translate(-341.53 -344.8)"/><path class="cls-1" d="M348.73,573.64C377.5,584,412.41,591.9,451.11,596.32l-16.26,28.17a50,50,0,0,1-86.61-50Z" transform="translate(-341.53 -344.8)"/><path class="cls-1" d="M584.85,364.68,453.68,591.88c-38.87-3.47-74.18-10.79-103.4-20.92l98-169.68a99.93,99.93,0,0,1,136.61-36.6Z" transform="translate(-341.53 -344.8)"/><path class="cls-1" d="M524,600.39a641.35,641.35,0,0,0,73.84-4.18,99.91,99.91,0,0,1-134.67,33.41L480.87,599C494.9,599.91,509.32,600.39,524,600.39Z" transform="translate(-341.53 -344.8)"/><path class="cls-1" d="M699.79,419.81,604.14,585.47a547.06,547.06,0,0,1-98.87,8.68q-10.81,0-21.38-.39l129.3-223.95a50,50,0,1,1,86.6,50Z" transform="translate(-341.53 -344.8)"/><path class="cls-1" d="M756.11,543.74c-31.14,25.1-88.48,44.38-158.25,52.47.66-1.05,1.31-2.12,1.93-3.2l4.35-7.54c51.08-9.44,92.52-26,116.68-46.51a45.09,45.09,0,0,0,35.29,4.78Z" transform="translate(-341.53 -344.8)"/><path class="cls-1" d="M781.5,500.39c0,.65,0,1.29,0,1.93l-.06.95c0,.64-.11,1.27-.19,1.89s-.17,1.2-.27,1.79a37.5,37.5,0,1,1,0-13.12c.1.59.19,1.19.27,1.79s.14,1.25.19,1.89l.06.95C781.48,499.1,781.5,499.74,781.5,500.39Z" transform="translate(-341.53 -344.8)"/></svg>